Coordinates
version=1
nRows=10
nColumns=22
inDegrees=yes

Units are S.I. units (second, meters, Newtons, ...)
If the header above contains a line with 'inDegrees', this indicates whether rotational values are in degrees (yes) or radians (no).

endheader
time	pelvis_tilt	pelvis_list	pelvis_rotation	pelvis_tx	pelvis_ty	pelvis_tz	hip_flexion_r	hip_adduction_r	hip_rotation_r	knee_angle_r	ankle_angle_r	subtalar_angle_r	hip_flexion_l	hip_adduction_l	hip_rotation_l	knee_angle_l	ankle_angle_l	subtalar_angle_l	lumbar_extension	lumbar_bending	lumbar_rotation
      3.51000000	     -7.47654002	     -0.76764656	    -65.77861154	      0.06584007	      0.96414905	      0.87304311	     22.63431493	      5.43155872	    -14.76289680	    -21.43781378	      0.20222645	      0.13613620	      4.96443602	    -11.53363767	      6.14204648	    -48.31859425	      5.76765137	     10.68832528	      1.25372574	      6.98122355	    -12.15209274
      3.52000000	     -7.70778984	     -0.78537014	    -66.12866416	      0.06559712	      0.96472165	      0.87894393	     22.21597763	      5.96182235	    -14.53481282	    -21.17220426	      0.48127125	      0.16826455	      6.04451534	    -11.84021873	      5.86692201	    -49.66888756	      6.04204058	      9.56380505	      1.25574720	      7.29259232	    -11.72853369
      3.53000000	     -7.90116640	     -0.78752684	    -66.48694072	      0.06538734	      0.96531242	      0.88469359	     21.79224398	      6.45162809	    -14.26592398	    -20.89039884	      0.73147633	      0.15981961	      7.06147487	    -12.06640389	      5.63951223	    -50.76429209	      6.46467244	      8.44891875	      1.25600135	      7.55999322	    -11.29726420
      3.54000000	     -8.05439793	     -0.77341716	    -66.85138338	      0.06520611	      0.96591663	      0.89027424	     21.37237308	      6.89384863	    -13.96383581	    -20.60646650	      0.94872741	      0.11215137	      8.01622913	    -12.20124025	      5.47142089	    -51.60551770	      7.01549606	      7.43356237	      1.25111402	      7.78039550	    -10.86416051
      3.55000000	     -8.16342718	     -0.73637402	    -67.21453146	      0.06508989	      0.96653793	      0.89571195	     20.96027738	      7.27268046	    -13.66571635	    -20.32336682	      1.15133732	      0.02996659	      8.90677808	    -12.23123944	      5.36990351	    -52.18444830	      7.66534839	      6.52397726	      1.25441320	      7.94762650	    -10.42209262
      3.56000000	     -8.23561282	     -0.68128605	    -67.56717285	      0.06502109	      0.96717032	      0.90095782	     20.56159386	      7.59784964	    -13.34488499	    -20.04660464	      1.32429052	     -0.06983592	      9.74862906	    -12.16453316	      5.34709430	    -52.52445616	      8.37089240	      5.81862917	      1.25749581	      8.07148986	    -10.01577249
      3.57000000	     -8.28475516	     -0.61346926	    -67.91397774	      0.06500501	      0.96780930	      0.90606454	     20.17540679	      7.87936599	    -13.04636834	    -19.77954362	      1.49070464	     -0.14434266	     10.53571591	    -12.02782894	      5.38617478	    -52.62924411	      9.13233764	      5.45421283	      1.26663250	      8.16808787	     -9.61222487
      3.58000000	     -8.29230467	     -0.51381756	    -68.21653522	      0.06508952	      0.96844657	      0.91097577	     19.80593714	      8.08706451	    -12.75379339	    -19.50154308	      1.62727816	     -0.27951357	     11.29511458	    -11.78057325	      5.53041009	    -52.51341806	      9.84044585	      4.97173650	      1.29630523	      8.21025031	     -9.30046943
      3.59000000	     -8.28834459	     -0.43369319	    -68.49850752	      0.06522409	      0.96908456	      0.91572537	     19.44257553	      8.26618863	    -12.51407835	    -19.26530291	      1.77190849	     -0.35882897	     11.98773903	    -11.49647707	      5.74955023	    -52.20526792	     10.59134768	      4.78710132	      1.29699170	      8.24717471	     -9.00767918
      3.60000000	     -8.26961712	     -0.33451687	    -68.75014493	      0.06543894	      0.96970201	      0.92030477	     19.09462879	      8.40881737	    -12.27013238	    -19.01773885	      1.89209244	     -0.46181170	     12.65611791	    -11.16258130	      6.03276192	    -51.71609690	     11.28591391	      4.63358889	      1.31322473	      8.26439093	     -8.77123786
